PathFileType	4	(X/Y/Z)	c:/Users/goper/Files/vsCode/490R/osim_files/C17/C17_Fast_04.trc
DataRate	CameraRate	NumFrames	NumMarkers	Units                	OrigDataRate	OrigDataStartFrame	OrigNumFrames
250.00	250.00	4	36	mm	250.0	784	2090
                Frame#	Time	LPSIS			LASIS			LTH1			LTH2			LTH3			LTH4			LLFE			LMFE			LSH1			LSH2			LSH3			LSH4			LLMAL			LMMAL			LCAL			LMTP5			LTOE			LMTP1			RPSIS			RASIS			RTH1			RTH2			RTH3			RTH4			RLFE			RMFE			RSH1			RSH2			RSH3			RSH4			RLMAL			RMMAL			RCAL			RMTP1			RTOE			RMTP5		
		X1	Y1	Z1	X2	Y2	Z2	X3	Y3	Z3	X4	Y4	Z4	X5	Y5	Z5	X6	Y6	Z6	X7	Y7	Z7	X8	Y8	Z8	X9	Y9	Z9	X10	Y10	Z10	X11	Y11	Z11	X12	Y12	Z12	X13	Y13	Z13	X14	Y14	Z14	X15	Y15	Z15	X16	Y16	Z16	X17	Y17	Z17	X18	Y18	Z18	X19	Y19	Z19	X20	Y20	Z20	X21	Y21	Z21	X22	Y22	Z22	X23	Y23	Z23	X24	Y24	Z24	X25	Y25	Z25	X26	Y26	Z26	X27	Y27	Z27	X28	Y28	Z28	X29	Y29	Z29	X30	Y30	Z30	X31	Y31	Z31	X32	Y32	Z32	X33	Y33	Z33	X34	Y34	Z34	X35	Y35	Z35	X36	Y36	Z36

784	3.13200	-1358.89526	1041.54358	349.73285	-1546.08423	983.56342	454.25171	-1460.39563	656.08246	492.52090	-1470.89661	614.31799	486.69675	-1518.31006	669.53979	496.40714	-1525.01025	625.79346	493.22418	-1468.56348	464.62598	476.16748	-1486.94324	453.31335	349.70422	-1256.75378	383.71967	474.26999	-1221.07166	358.08658	469.78610	-1287.00769	328.43649	474.39716	-1247.46033	311.87900	468.47836	-1108.71277	261.49667	449.57846	-1125.19458	261.86575	363.17645	-1057.99170	329.26147	411.71991	-1070.31396	127.12928	440.34818	-1112.81396	90.89239	373.04330	-1091.05615	114.08036	324.20175	-1364.78259	1041.06067	274.09839	-1551.91174	1015.85272	186.88560	-1584.66272	732.13031	138.23090	-1602.61975	689.03906	149.35800	-1640.66895	752.06036	149.15417	-1651.54077	706.08893	154.45079	-1699.83105	491.84210	191.82471	-1668.85205	510.76901	314.67960	-1632.15784	289.86008	199.15749	-1637.41833	247.32697	219.27238	-1692.97205	294.59476	215.23138	-1688.26453	248.20923	230.37172	-1632.21240	91.98476	270.34891	-1656.32495	111.85850	356.98550	-1561.18713	54.69834	314.46964	-1796.02515	52.04933	361.76532	-1812.65955	75.58836	315.88327	-1759.77197	42.39085	246.87408
785	3.13600	-1365.30945	1043.02686	349.39478	-1552.64771	985.34546	453.69418	-1471.58838	656.92377	492.20093	-1482.68591	615.32623	486.44171	-1529.30725	671.27484	495.91983	-1536.52441	627.35815	493.09497	-1482.18005	466.39893	476.59491	-1500.03625	454.59134	350.22873	-1270.37561	385.71866	475.01547	-1234.35107	360.50519	470.71320	-1300.70972	330.54825	474.91760	-1260.96606	313.98712	469.18594	-1122.42029	263.38242	450.13193	-1138.56531	263.59225	363.80630	-1070.49731	329.71530	411.47006	-1086.94788	128.46645	442.31848	-1129.73132	92.40642	374.98178	-1107.29443	114.73275	326.18445	-1371.32776	1042.62744	273.70935	-1558.40369	1017.70825	186.27336	-1588.85632	732.70380	137.65242	-1606.51196	689.41064	148.84825	-1645.07678	752.17303	148.45015	-1655.53455	706.18652	153.80678	-1702.01343	491.43811	191.26884	-1671.24634	510.94116	314.38846	-1632.79773	289.96884	199.12279	-1637.82361	247.46245	219.18300	-1693.70911	294.36057	214.96489	-1688.72815	247.96129	230.08388	-1632.36340	91.96967	270.46930	-1656.45361	111.88172	356.99939	-1561.21338	54.77925	314.49500	-1796.15479	51.91790	361.92957	-1812.65613	75.33321	315.98938	-1759.79785	42.35124	246.85138
786	3.14000	-1371.82715	1044.50952	349.04062	-1559.35718	987.07648	453.06400	-1482.77319	657.94275	491.87860	-1494.49207	616.45697	486.20184	-1540.37683	672.96130	495.81363	-1548.11450	629.05505	492.94952	-1495.66943	468.28601	476.96298	-1513.25208	455.92361	350.65112	-1283.69250	387.77200	475.32974	-1247.95325	362.43808	471.18335	-1314.12549	332.67047	475.48276	-1274.66980	315.97198	469.64883	-1136.21631	265.15567	450.67404	-1152.01965	265.01682	364.37564	-1082.75549	330.08319	411.66660	-1103.80298	129.61101	444.34637	-1147.01965	93.74564	377.12100	-1123.83032	115.08741	328.22504	-1377.91785	1044.18909	273.33542	-1564.92432	1019.47876	185.57016	-1593.11121	733.28375	137.09207	-1610.43945	689.78510	148.43239	-1649.41968	752.35162	147.94487	-1659.46545	706.16931	153.25113	-1704.10034	491.05048	190.71155	-1673.40234	511.13684	314.08337	-1633.37891	290.09915	199.00945	-1638.20154	247.56012	219.04201	-1694.45630	294.04724	214.48819	-1689.31262	247.71057	229.77168	-1632.64819	91.95096	270.73267	-1656.55798	111.90110	356.98828	-1561.26257	54.86193	314.47134	-1797.19067	52.17408	362.48248	-1812.33655	75.19312	315.81433	-1759.82324	42.31105	246.79779
787	3.14400	-1378.22131	1046.19849	348.61353	-1565.96057	989.04425	452.55875	-1493.84961	659.09833	491.44611	-1506.16199	617.77966	485.91125	-1551.39087	674.82544	495.60001	-1559.28040	630.85559	494.16885	-1509.14172	470.32077	477.23386	-1526.02954	457.52316	350.89474	-1297.22900	389.65988	475.58118	-1261.45068	364.23969	471.58844	-1327.95447	334.66660	475.87759	-1288.33765	317.90265	470.13776	-1150.08264	266.65146	451.14066	-1165.90369	266.15552	364.87146	-1095.09497	330.09094	411.73154	-1120.90125	130.59453	446.34088	-1161.12744	92.98666	381.50259	-1140.26868	115.32893	330.81158	-1384.49976	1045.76575	272.97452	-1571.32983	1020.95966	184.87971	-1597.26843	733.84418	136.53313	-1614.40356	690.16382	147.90836	-1653.79651	752.44427	147.25864	-1663.48999	706.27246	152.63846	-1706.02820	490.62204	190.20128	-1675.58923	511.45465	313.65784	-1633.98047	290.24890	198.84155	-1638.90491	247.82278	218.55678	-1695.15723	293.73572	214.05240	-1689.80469	247.50938	229.33499	-1632.76794	91.98447	270.74719	-1656.64258	111.94132	356.95416	-1561.30212	54.95625	314.47391	-1797.24744	52.03965	362.61133	-1812.64587	74.84374	316.14120	-1759.85217	42.29265	246.77290
